<!DOCTYPE svg PUBLIC "-//W3C//DTD SVG 1.1//EN" "http://www.w3.org/Graphics/SVG/1.1/DTD/svg11.dtd">
<!-- Uploaded to: SVG Repo, www.svgrepo.com, Transformed by: SVG Repo Mixer Tools -->
<svg fill="#ffffff" height="219px" width="219px" version="1.1" id="Capa_1" xmlns="http://www.w3.org/2000/svg" xmlns:xlink="http://www.w3.org/1999/xlink" viewBox="-100.98 -100.98 682.82 682.82" xml:space="preserve" stroke="#ffffff" transform="matrix(1, 0, 0, 1, 0, 0)rotate(0)" stroke-width="0.004808580000000001">
<g id="SVGRepo_bgCarrier" stroke-width="0" transform="translate(0,0), scale(1)">
<rect x="-100.98" y="-100.98" width="682.82" height="682.82" rx="341.41" fill="#000000" strokewidth="0"/>
</g>
<g id="SVGRepo_tracerCarrier" stroke-linecap="round" stroke-linejoin="round" stroke="#CCCCCC" stroke-width="0.961716"/>
<g id="SVGRepo_iconCarrier"> <path id="XMLID_109_" d="M174.034,225.074c-1.563,3.188-4.762,5.041-8.088,5.041c-1.33,0-2.68-0.296-3.955-0.921 c-22.365-10.963-48.208-33.518-70.902-61.882c-25.675-32.09-43.049-66.277-46.476-91.452c-0.67-4.925,2.779-9.461,7.704-10.132 c4.928-0.665,9.461,2.779,10.132,7.704c2.961,21.757,19.321,53.421,42.694,82.635c20.785,25.978,44.998,47.273,64.77,56.965 C174.377,215.219,176.222,220.611,174.034,225.074z M226.824,366.482c3.671,3.351,3.93,9.043,0.579,12.715l-22.063,24.17 c0.927,2.026,1.535,4.212,1.789,6.496c0.623,5.611-0.969,11.12-4.482,15.511l-11.797,14.743c-6.651,8.312-16.172,13.54-26.81,14.721 c-1.512,0.168-3.022,0.251-4.521,0.251c-9.043,0-17.736-3.027-24.867-8.733c-0.045-0.036-0.089-0.072-0.133-0.109 c-8.235-6.646-13.415-16.122-14.59-26.703c-1.181-10.638,1.831-21.075,8.482-29.387l11.797-14.743 c5.147-6.432,13.321-9.052,20.877-7.451l22.668-32.445c2.847-4.074,8.458-5.071,12.533-2.223c4.074,2.847,5.07,8.458,2.223,12.532 l-22.054,31.565l16.311,13.051l21.344-23.382C217.46,363.39,223.152,363.131,226.824,366.482z M189.238,411.85 c-0.054-0.482-0.272-1.394-1.132-2.083L158.8,386.319c-0.092-0.07-0.183-0.141-0.271-0.214c-1.313-0.969-3.241-0.727-4.267,0.555 l-11.797,14.743c-3.647,4.558-5.297,10.295-4.646,16.155s3.52,11.095,8.078,14.741c0.034,0.027,0.068,0.055,0.102,0.083 c9.462,7.482,23.25,5.92,30.796-3.511l11.797-14.743C189.279,413.269,189.292,412.332,189.238,411.85z M352.449,390.157 c13.736,17.172,10.987,42.296-6.108,56.091c-0.044,0.037-0.089,0.074-0.134,0.109c-7.357,5.887-16.176,8.746-24.938,8.746 c-11.737,0-23.372-5.13-31.259-14.985l-11.797-14.744c-3.514-4.39-5.106-9.899-4.482-15.511c0.253-2.282,0.861-4.468,1.788-6.494 L158.65,275.334c-0.912-0.132-1.811-0.406-2.666-0.825c-29.631-14.525-63.946-44.502-94.147-82.247 C27.698,149.596,4.612,104.258,0.082,70.983c-0.427-3.135,0.824-6.264,3.295-8.241l43.76-35.014c2.471-1.978,5.798-2.51,8.764-1.407 C87.37,38.039,126.54,70.507,160.68,113.174c30.201,37.746,51.921,77.802,59.591,109.897c0.221,0.924,0.291,1.861,0.221,2.778 l99.285,142.113c7.56-1.599,15.729,1.02,20.875,7.451L352.449,390.157z M158.891,255.745l42.435-33.954 c-8.132-28.406-28.247-64.308-54.701-97.371c-29.994-37.485-64.869-67.36-92.354-79.348L18.735,73.506 c5.667,29.447,27.164,70.025,57.156,107.51C102.346,214.079,132.961,241.579,158.891,255.745z M304.406,377.392l-96.359-137.925 l-33.384,26.711l10.391,11.383l16.148-13.858c3.772-3.237,9.455-2.804,12.691,0.968c3.237,3.772,2.804,9.454-0.968,12.691 l-15.73,13.5l8.969,9.826l13.641-11.707c3.772-3.236,9.454-2.803,12.691,0.969c3.237,3.772,2.803,9.454-0.969,12.691l-13.223,11.347 l9.105,9.976l10.35-8.881c3.772-3.238,9.454-2.803,12.691,0.969c3.237,3.772,2.803,9.454-0.969,12.691l-9.931,8.521l8.229,9.015 l8.332-7.15c3.772-3.235,9.454-2.803,12.691,0.969c3.237,3.772,2.803,9.454-0.969,12.691l-7.914,6.791l7.702,8.438l5.457-4.683 c3.771-3.236,9.454-2.804,12.691,0.969c3.237,3.772,2.803,9.454-0.969,12.691l-5.038,4.323l8.332,9.127L304.406,377.392z M338.394,401.402l-11.797-14.741c-1.05-1.313-3.047-1.534-4.361-0.483L292.8,409.731c-0.025,0.021-0.05,0.041-0.075,0.061 c-0.837,0.686-1.051,1.583-1.104,2.059c-0.053,0.482-0.041,1.418,0.647,2.277l11.797,14.744c7.546,9.43,21.337,10.991,30.798,3.509 c0.033-0.027,0.066-0.054,0.1-0.081C344.426,424.728,345.966,410.867,338.394,401.402z M418.41,73.432 c-2.961,21.757-19.321,53.421-42.694,82.634c-20.787,25.978-45.001,47.274-64.771,56.966c-4.463,2.188-6.308,7.58-4.12,12.042 c1.563,3.188,4.761,5.041,8.088,5.041c1.33,0,2.68-0.296,3.955-0.921c22.363-10.963,48.206-33.518,70.903-61.882 c25.675-32.089,43.049-66.277,46.476-91.452c0.67-4.925-2.779-9.461-7.704-10.132C423.614,65.062,419.08,68.507,418.41,73.432z M480.776,70.981c-4.526,33.276-27.612,78.614-61.755,121.28c-30.192,37.739-64.507,67.717-94.145,82.246 c-0.854,0.419-1.753,0.693-2.665,0.825l-23.193,25.406c-1.775,1.945-4.208,2.932-6.649,2.932c-2.167,0-4.339-0.777-6.065-2.353 c-3.671-3.351-3.93-9.044-0.579-12.715l20.472-22.426l-33.385-26.71l-7.615,10.9c-2.846,4.075-8.458,5.071-12.532,2.224 c-4.075-2.846-5.071-8.457-2.224-12.532l9.924-14.207c-0.071-0.919-0.001-1.857,0.22-2.784 c7.675-32.101,29.396-72.156,59.593-109.895c34.136-42.664,73.306-75.132,104.779-86.853c2.965-1.104,6.292-0.571,8.764,1.407 l43.758,35.013C479.951,64.717,481.202,67.846,480.776,70.981z M462.123,73.505l-35.535-28.432 c-27.489,11.99-62.364,41.865-92.355,79.347c-26.451,33.058-46.566,68.959-54.703,97.37l42.438,33.953 c25.935-14.17,56.55-41.67,82.998-74.728C434.962,143.531,456.459,102.953,462.123,73.505z"/> </g>
</svg>